<?xml version="1.0" encoding="UTF-8"?>
<svg id="_レイヤー_2" data-name="レイヤー 2" xmlns="http://www.w3.org/2000/svg" viewBox="0 0 1076.03 695.75">
  <g id="_レイヤー_1-2" data-name="レイヤー 1">
    <g>
      <path d="M305.35,114.88l66.86-87c13.51-17.58,34.43-27.89,56.6-27.89h30.91c60.61,0,93.64,70.76,54.73,117.22l-134.32,160.38c-22.07,26.35-22.23,64.69-.37,91.22l162.03,196.71c38.36,46.57,5.23,116.77-55.1,116.77h-43.71c-22,0-42.76-10.14-56.29-27.49l-81.64-104.69c-41.77-53.56-127.68-24.03-127.68,43.9v16.89c0,39.42-31.96,71.38-71.38,71.38h-34.59c-39.42,0-71.38-31.96-71.38-71.38V71.38C0,31.96,31.96,0,71.38,0h34.59c39.42,0,71.38,31.96,71.38,71.38h0c0,68.18,86.44,97.56,127.99,43.5Z"/>
      <path d="M930.35,236.51v386.4c0,40.23-32.61,72.84-72.84,72.84h-31.68c-40.23,0-72.84-32.61-72.84-72.84V236.51c0-40.23-32.61-72.84-72.84-72.84h0c-40.23,0-72.84-32.61-72.84-72.84v-4.53c0-40.23,32.61-72.84,72.84-72.84h323.05c40.23,0,72.84,32.61,72.84,72.84v4.53c0,40.23-32.61,72.84-72.84,72.84h0c-40.23,0-72.84,32.61-72.84,72.84Z"/>
    </g>
  </g>
</svg>