<?xml version="1.0" encoding="UTF-8"?>
<svg id="_レイヤー_2" data-name="レイヤー_2" xmlns="http://www.w3.org/2000/svg" viewBox="0 0 1076.02 695.76">
  <defs>
    <style>
      .cls-1 {
        fill: #fff;
      }
    </style>
  </defs>
  <g id="_レイヤー_2-2" data-name="_レイヤー_2">
    <g id="_レイヤー_1-2">
      <g>
        <path class="cls-1" d="M305.33,114.89l66.86-87c13.51-17.58,34.43-27.89,56.6-27.89h30.91c60.61,0,93.64,70.76,54.73,117.22l-134.32,160.38c-22.07,26.35-22.23,64.69-.37,91.22l162.03,196.71c38.36,46.57,5.23,116.77-55.1,116.77h-43.71c-22,0-42.76-10.14-56.29-27.49l-81.64-104.69c-41.77-53.56-127.68-24.03-127.68,43.9v16.89c0,39.42-31.96,71.38-71.38,71.38h-34.59C31.96,682.29,0,650.33,0,610.91V71.39C-.02,31.97,31.94.01,71.36.01h34.59C145.37.01,177.33,31.97,177.33,71.39h0c0,68.18,86.44,97.56,127.99,43.5h.01Z"/>
        <path class="cls-1" d="M930.33,236.52v386.4c0,40.23-32.61,72.84-72.84,72.84h-31.68c-40.23,0-72.84-32.61-72.84-72.84V236.52c0-40.23-32.61-72.84-72.84-72.84h0c-40.23,0-72.84-32.61-72.84-72.84v-4.53c0-40.23,32.61-72.84,72.84-72.84h323.05c40.23,0,72.84,32.61,72.84,72.84v4.53c0,40.23-32.61,72.84-72.84,72.84h0c-40.23,0-72.84,32.61-72.84,72.84h-.01Z"/>
      </g>
    </g>
  </g>
</svg>